<?xml version="1.0" standalone="no"?><!DOCTYPE svg PUBLIC "-//W3C//DTD SVG 1.1//EN" "http://www.w3.org/Graphics/SVG/1.1/DTD/svg11.dtd"><svg t="1755676804348" class="icon" viewBox="0 0 1024 1024" version="1.1" xmlns="http://www.w3.org/2000/svg" p-id="6014" xmlns:xlink="http://www.w3.org/1999/xlink" width="200" height="200"><path d="M774.917689 688.469333a34.360889 34.360889 0 0 0 0.227555-4.050489V146.386489a79.644444 79.644444 0 0 0-79.644444-79.644445h-500.622222a79.644444 79.644444 0 0 0-79.644445 79.644445v750.933333a79.644444 79.644444 0 0 0 79.644445 79.644445h637.155555a79.644444 79.644444 0 0 0 79.644445-79.644445v-728.177778a34.133333 34.133333 0 0 0-68.266667 0v728.177778a11.377778 11.377778 0 0 1-11.377778 11.377778h-637.155555a11.377778 11.377778 0 0 1-11.377778-11.377778v-170.666666h557.511111a34.133333 34.133333 0 0 0 33.905778-38.183823zM194.878578 135.008711h500.622222a11.377778 11.377778 0 0 1 11.377778 11.377778v512h-523.377778v-512a11.377778 11.377778 0 0 1 11.377778-11.377778z" fill="#000000" p-id="6015"></path><path d="M240.412444 817.675378a34.133333 34.133333 0 0 1 34.133334-34.133334h432.355555a34.133333 34.133333 0 0 1 0 68.266667h-432.355555a34.133333 34.133333 0 0 1-34.133334-34.133333z" fill="#000000" p-id="6016"></path></svg>